<svg width="520" height="500" viewBox="0 0 520 500" fill="none" xmlns="http://www.w3.org/2000/svg" role="img" aria-labelledby="t d">
  <title id="t">Report AI — versão monocromática</title>
  <desc id="d">Logo vertical em uma única cor (tinta), para impressão monocromática, gravação e usos de baixo contraste.</desc>
  <defs>
    <pattern id="hatchm" width="6" height="6" patternUnits="userSpaceOnUse" patternTransform="rotate(20)">
      <path d="M0 1.5H6" stroke="#1B1A17" stroke-width="1.2" stroke-linecap="round" opacity=".2"/>
    </pattern>
    <symbol id="markm" viewBox="0 0 256 256">
      <g>
        <path d="M58 40 L168 40 L198 70 L198 216 L58 216 Z" fill="#FFFFFF" stroke="#1B1A17" stroke-width="6" stroke-linejoin="round"/>
        <path d="M168 40 L168 70 L198 70 Z" fill="#FFFFFF"/>
        <path d="M168 40 L168 70 L198 70" fill="none" stroke="#1B1A17" stroke-width="4" stroke-linejoin="round"/>
        <path d="M72 104 H184" stroke="#1B1A17" stroke-width="5" stroke-linecap="round"/>
        <path d="M85 104 A19 19 0 0 1 123 104 Z" fill="#1B1A17"/>
        <g stroke="#1B1A17" stroke-width="4" stroke-linecap="round">
          <path d="M104 81 L104 72"/><path d="M115.5 84.1 L119.5 77.1"/><path d="M92.5 84.1 L88.5 77.1"/>
          <path d="M122.8 90.8 L129.4 86.2"/><path d="M85.2 90.8 L78.6 86.2"/>
        </g>
        <path d="M76 170 H150" stroke="#1B1A17" stroke-width="5" stroke-linecap="round"/>
        <g fill="#1B1A17">
          <rect x="80" y="154" width="12" height="16" rx="1.5"/><rect x="98" y="142" width="12" height="28" rx="1.5"/>
          <rect x="116" y="130" width="12" height="40" rx="1.5"/><rect x="134" y="118" width="12" height="52" rx="1.5"/>
        </g>
        <g stroke="#1B1A17" stroke-width="4" stroke-linecap="round">
          <path d="M158 120 H184"/><path d="M158 132 H178"/><path d="M158 144 H184"/><path d="M158 156 H173"/>
        </g>
        <path d="M78 204 L94 200 L110 202 L126 192 L140 184" fill="none" stroke="#1B1A17" stroke-width="4" stroke-linecap="round" stroke-linejoin="round"/>
        <g fill="#FFFFFF" stroke="#1B1A17" stroke-width="2.4">
          <circle cx="78" cy="204" r="3.2"/><circle cx="110" cy="202" r="3.2"/><circle cx="126" cy="192" r="3.2"/>
        </g>
        <circle cx="140" cy="184" r="3.6" fill="#1B1A17" stroke="#1B1A17" stroke-width="2.4"/>
        <circle cx="170" cy="194" r="22" fill="#1B1A17"/>
        <path d="M170 194 L170 172 A22 22 0 0 1 191.7 197.8 Z" fill="#FFFFFF"/>
        <path d="M170 194 L170 172 M170 194 L191.7 197.8" stroke="#1B1A17" stroke-width="2.6" stroke-linecap="round"/>
        <circle cx="170" cy="194" r="22" fill="none" stroke="#1B1A17" stroke-width="3"/>
        <path d="M67 61 Q67.8 65.2 72 66 Q67.8 66.8 67 71 Q66.2 66.8 62 66 Q66.2 65.2 67 61 Z" fill="#1B1A17"/>
        <g fill="#1B1A17">
          <circle cx="67" cy="82" r="1.9"/><circle cx="67" cy="94" r="1.9"/><circle cx="67" cy="166" r="1.9"/><circle cx="67" cy="178" r="1.9"/>
          <path d="M67 145 Q67.8 149.2 72 150 Q67.8 150.8 67 155 Q66.2 150.8 62 150 Q66.2 149.2 67 145 Z"/>
        </g>
      </g>
    </symbol>
  </defs>

  <use href="#markm" x="146" y="20" width="228" height="228"/>

  <g stroke-linecap="round" stroke="#1B1A17">
    <path d="M150 296 H236" stroke-width="2.4"/>
    <path d="M284 296 H370" stroke-width="2.4"/>
  </g>
  <path d="M260 286 Q261 294 269 296 Q261 298 260 306 Q259 298 251 296 Q259 294 260 286 Z" fill="#1B1A17"/>
  <circle cx="150" cy="296" r="4" fill="#1B1A17"/>
  <circle cx="370" cy="296" r="4" fill="#1B1A17"/>

  <text x="260" y="398" text-anchor="middle" font-family="Georgia, 'Times New Roman', serif" font-weight="bold" font-size="86" fill="#1B1A17">Report AI</text>

  <text x="260" y="450" text-anchor="middle" font-family="'Helvetica Neue', Arial, sans-serif" font-size="16.5" font-weight="bold" letter-spacing="3.4" fill="#1B1A17">DADOS  •  INSIGHTS  •  INTELIGÊNCIA</text>
</svg>
