<svg xmlns="http://www.w3.org/2000/svg" width="1200" height="630" viewBox="0 0 1200 630" role="img" aria-label="Imagem institucional da MS Multserv Terceirizações">
  <defs>
    <linearGradient id="bg" x1="0" y1="0" x2="1" y2="1">
      <stop offset="0" stop-color="#f7fbfd"/>
      <stop offset="0.52" stop-color="#e8f8fd"/>
      <stop offset="1" stop-color="#ffffff"/>
    </linearGradient>
    <linearGradient id="panel" x1="0" y1="0" x2="1" y2="1">
      <stop offset="0" stop-color="#006783"/>
      <stop offset="1" stop-color="#16a9d2"/>
    </linearGradient>
    <filter id="shadow" x="-20%" y="-20%" width="140%" height="140%">
      <feDropShadow dx="0" dy="24" stdDeviation="28" flood-color="#06202a" flood-opacity="0.18"/>
    </filter>
  </defs>
  <rect width="1200" height="630" fill="url(#bg)"/>
  <circle cx="1060" cy="80" r="210" fill="#16a9d2" opacity="0.12"/>
  <circle cx="90" cy="560" r="190" fill="#006783" opacity="0.1"/>
  <rect x="64" y="64" width="1072" height="502" rx="34" fill="#ffffff" opacity="0.9" filter="url(#shadow)"/>
  <rect x="730" y="64" width="406" height="502" rx="34" fill="url(#panel)" opacity="0.95"/>
  <path d="M790 435c78-98 168-142 282-132v263H730v-60c18-18 38-42 60-71z" fill="#ffffff" opacity="0.15"/>
  <text x="104" y="270" fill="#006783" font-family="Inter, Arial, sans-serif" font-size="76" font-weight="900">MS</text>
  <text x="228" y="254" fill="#006783" font-family="Inter, Arial, sans-serif" font-size="30" font-weight="900">MULT</text>
  <text x="318" y="254" fill="#16a9d2" font-family="Inter, Arial, sans-serif" font-size="30" font-weight="900">SERV</text>
  <text x="228" y="286" fill="#6d6d6d" font-family="Inter, Arial, sans-serif" font-size="21" font-style="italic" letter-spacing="4">Terceirizações</text>
  <text x="104" y="382" fill="#102c35" font-family="Inter, Arial, sans-serif" font-size="49" font-weight="800">
    Limpeza profissional
  </text>
  <text x="104" y="440" fill="#102c35" font-family="Inter, Arial, sans-serif" font-size="49" font-weight="800">
    e terceirizações
  </text>
  <text x="104" y="490" fill="#5f6d76" font-family="Inter, Arial, sans-serif" font-size="24" font-weight="500">
    Empresas, condomínios e eventos em João Pessoa
  </text>
  <rect x="104" y="510" width="272" height="54" rx="16" fill="#006783"/>
  <text x="130" y="545" fill="#ffffff" font-family="Inter, Arial, sans-serif" font-size="22" font-weight="800">
    Solicite seu orçamento
  </text>
  <text x="782" y="178" fill="#ffffff" font-family="Inter, Arial, sans-serif" font-size="30" font-weight="800">
    Supervisão
  </text>
  <text x="782" y="226" fill="#ffffff" font-family="Inter, Arial, sans-serif" font-size="30" font-weight="800">
    Equipe treinada
  </text>
  <text x="782" y="274" fill="#ffffff" font-family="Inter, Arial, sans-serif" font-size="30" font-weight="800">
    Resposta rápida
  </text>
</svg>
